<svg width="24" height="37" viewBox="0 0 24 37" fill="none" xmlns="http://www.w3.org/2000/svg">
<path d="M22.6213 19.2074L13.2679 0.802771C13.0176 0.310244 12.5119 0 11.9594 0C11.4066 0 10.9006 0.310629 10.6505 0.803627L1.30908 19.2144C-2.72483 27.1647 3.05178 36.5734 11.967 36.5734C20.8856 36.5734 26.662 27.1582 22.6213 19.2074Z" fill="black"/>
<path d="M3.22065 20.2084C2.4848 21.8578 2.32754 24.0248 2.35278 25.0429C2.56808 28.5185 4.59161 30.7929 6.63181 32.1294C7.27736 32.4682 8.87474 33.0506 10.0999 32.6699C11.325 32.2892 11.8314 31.1901 11.9315 30.6881C12.1117 29.8073 11.7273 27.7454 8.74862 26.5443C5.7699 25.3432 5.60576 22.861 5.89602 21.77C6.16026 19.7521 7.90785 18.4469 8.74862 18.0466C9.11896 17.8664 10.1562 17.4742 11.3424 17.3466C12.2501 17.2491 13.2022 17.391 13.8156 17.5332C14.1223 17.6043 14.434 17.6573 14.7488 17.6573H14.7588C15.2669 17.5862 15.2076 17.1065 15.1144 16.8755C15.0143 16.6052 14.4238 15.9506 12.8624 15.4942C11.3661 15.0569 9.5481 15.2683 8.72961 15.447C8.66911 15.4602 8.60728 15.4333 8.57631 15.3797C8.55268 15.3387 8.55131 15.2886 8.57268 15.2465L11.8608 8.75839C11.8858 8.70908 11.9363 8.67801 11.9916 8.67801C12.0468 8.67801 12.0974 8.70906 12.1224 8.75833L17.3064 18.9774C18.0511 20.4668 18.6777 21.9801 18.8979 22.5507C19.531 24.0823 19.7749 26.1854 19.8399 27.4394C19.8564 27.7586 20.1163 28.0157 20.4359 28.0157H20.5251C20.6876 28.0157 20.8366 27.9252 20.9116 27.781C21.0901 27.4378 21.2413 27.0795 21.3287 26.7026C22.0095 23.7697 21.1759 21.0841 20.6395 20.0584L12.4766 3.79166C12.3818 3.60262 12.1884 3.48328 11.9768 3.48328C11.765 3.48328 11.5714 3.60294 11.4767 3.79239L4.15002 18.4457C3.85307 19.0396 3.49117 19.602 3.22065 20.2084Z" fill="white"/>
<path d="M17.5899 32.0647C16.4005 32.9663 15.0303 33.1616 14.5293 32.5009C14.0284 31.8401 14.5865 30.5735 15.7759 29.6718C16.9653 28.7701 18.3355 28.5749 18.8365 29.2356C19.3374 29.8964 18.7793 31.163 17.5899 32.0647Z" fill="white"/>
</svg>
